<svg xmlns="http://www.w3.org/2000/svg" version="1.1" xmlns:xlink="http://www.w3.org/1999/xlink" xmlns:svgjs="http://svgjs.com/svgjs" width="1920" height="1080" preserveAspectRatio="none" viewBox="0 0 1920 1080"><g mask="url(&quot;#SvgjsMask1031&quot;)" fill="none"><rect width="1920" height="1080" x="0" y="0" fill="url(#SvgjsLinearGradient1032)"></rect><path d="M28 1080L1108 0L1361.5 0L281.5 1080z" fill="url(#SvgjsLinearGradient1033)"></path><path d="M666.6 1080L1746.6 0L2390.1 0L1310.1 1080z" fill="url(#SvgjsLinearGradient1033)"></path><path d="M1818 1080L738 0L64.5 0L1144.5 1080z" fill="url(#SvgjsLinearGradient1034)"></path><path d="M1190.4 1080L110.40000000000009 0L-195.5999999999999 0L884.4000000000001 1080z" fill="url(#SvgjsLinearGradient1034)"></path><path d="M1327.8488713414413 1080L1920 487.8488713414413L1920 1080z" fill="url(#SvgjsLinearGradient1033)"></path><path d="M0 1080L592.1511286585587 1080L 0 487.8488713414413z" fill="url(#SvgjsLinearGradient1034)"></path></g><defs><mask id="SvgjsMask1031"><rect width="1920" height="1080" fill="#ffffff"></rect></mask><linearGradient x1="10.94%" y1="-19.44%" x2="89.06%" y2="119.44%" gradientUnits="userSpaceOnUse" id="SvgjsLinearGradient1032"><stop stop-color="#0e2a47" offset="0"></stop><stop stop-color="#00459e" offset="1"></stop></linearGradient><linearGradient x1="0%" y1="100%" x2="100%" y2="0%" id="SvgjsLinearGradient1033"><stop stop-color="rgba(15, 70, 185, 0.2)" offset="0"></stop><stop stop-opacity="0" stop-color="rgba(15, 70, 185, 0.2)" offset="0.66"></stop></linearGradient><linearGradient x1="100%" y1="100%" x2="0%" y2="0%" id="SvgjsLinearGradient1034"><stop stop-color="rgba(15, 70, 185, 0.2)" offset="0"></stop><stop stop-opacity="0" stop-color="rgba(15, 70, 185, 0.2)" offset="0.66"></stop></linearGradient></defs></svg>